<?xml version="1.0" encoding="UTF-8"?><svg id="a" xmlns="http://www.w3.org/2000/svg" viewBox="0 0 1280 640"><defs><style>.b{opacity:.8;}.b,.c,.d,.e,.f,.g,.h,.i,.j{stroke:#333;stroke-miterlimit:10;stroke-width:10px;}.b,.c,.e,.g,.h,.i,.j{fill:#887dba;}.c{opacity:.7;}.k{fill:#333;}.d{fill:#85ab70;}.f{fill:#ffed96;}.g{opacity:.9;}.h{opacity:.5;}.i{opacity:.6;}.j{opacity:.4;}</style></defs><path class="f" d="M632,125.03V449h-104.49c-23.85,0-43.19-19.34-43.19-43.2,0-7.23,1.78-14.05,4.92-20.04l-.12-.07,34.42-59.62,.03-.06,72.94-126.33V125.03h35.49Z"/><path class="d" d="M632,103.64v21.39h-53c-5.9,0-10.69-4.79-10.69-10.69,0-2.96,1.2-5.63,3.13-7.57s4.61-3.13,7.56-3.13h53Z"/><g><path class="k" d="M548.39,529.66c1.87,1.22,5.18,2.52,8.35,2.52,4.61,0,6.77-2.3,6.77-5.18,0-3.02-1.8-4.68-6.48-6.41-6.26-2.23-9.22-5.69-9.22-9.86,0-5.62,4.54-10.23,12.02-10.23,3.53,0,6.62,1.01,8.57,2.16l-1.58,4.61c-1.37-.86-3.89-2.02-7.13-2.02-3.74,0-5.83,2.16-5.83,4.75,0,2.88,2.09,4.18,6.62,5.91,6.05,2.3,9.15,5.33,9.15,10.51,0,6.12-4.75,10.44-13.03,10.44-3.82,0-7.34-.94-9.79-2.38l1.58-4.82Z"/><path class="k" d="M602.61,534.85c-1.66,.86-5.33,2.02-10.01,2.02-10.51,0-17.35-7.13-17.35-17.79s7.34-18.51,18.72-18.51c3.74,0,7.06,.94,8.78,1.8l-1.44,4.9c-1.51-.86-3.89-1.66-7.34-1.66-7.99,0-12.31,5.9-12.31,13.18,0,8.06,5.18,13.03,12.1,13.03,3.6,0,5.98-.94,7.78-1.73l1.08,4.75Z"/><path class="k" d="M617.08,491.5c.07,2.16-1.51,3.89-4.03,3.89-2.23,0-3.82-1.73-3.82-3.89s1.66-3.96,3.96-3.96,3.89,1.73,3.89,3.96Zm-7.06,44.64v-34.85h6.34v34.85h-6.34Z"/><path class="k" d="M626,529.66c1.87,1.22,5.18,2.52,8.35,2.52,4.61,0,6.77-2.3,6.77-5.18,0-3.02-1.8-4.68-6.48-6.41-6.26-2.23-9.22-5.69-9.22-9.86,0-5.62,4.54-10.23,12.02-10.23,3.53,0,6.62,1.01,8.57,2.16l-1.58,4.61c-1.37-.86-3.89-2.02-7.13-2.02-3.74,0-5.83,2.16-5.83,4.75,0,2.88,2.09,4.18,6.62,5.91,6.05,2.3,9.15,5.33,9.15,10.51,0,6.12-4.75,10.44-13.03,10.44-3.82,0-7.34-.94-9.79-2.38l1.58-4.82Z"/><path class="k" d="M686.92,518.43c0,12.89-8.93,18.51-17.35,18.51-9.43,0-16.71-6.91-16.71-17.93,0-11.67,7.63-18.51,17.28-18.51s16.78,7.27,16.78,17.93Zm-27.65,.36c0,7.63,4.39,13.39,10.58,13.39s10.58-5.69,10.58-13.54c0-5.91-2.95-13.39-10.44-13.39s-10.73,6.91-10.73,13.54Z"/><path class="k" d="M694.91,512.17c0-4.1-.07-7.63-.29-10.87h5.54l.22,6.84h.29c1.58-4.68,5.4-7.63,9.65-7.63,.72,0,1.22,.07,1.8,.22v5.98c-.65-.14-1.3-.22-2.16-.22-4.46,0-7.63,3.38-8.5,8.14-.14,.86-.29,1.87-.29,2.95v18.58h-6.26v-23.98Z"/><path class="k" d="M727.81,491.28v10.01h9.07v4.82h-9.07v18.79c0,4.32,1.22,6.77,4.75,6.77,1.66,0,2.88-.22,3.67-.43l.29,4.75c-1.22,.5-3.17,.86-5.62,.86-2.95,0-5.33-.94-6.84-2.66-1.8-1.87-2.45-4.97-2.45-9.07v-19.01h-5.4v-4.82h5.4v-8.35l6.19-1.66Z"/></g><rect class="e" x="656.5" y="104" width="140" height="30" rx="5.05" ry="5.05"/><rect class="c" x="656.5" y="261.75" width="80" height="30" rx="5.05" ry="5.05"/><rect class="g" x="656.5" y="156.58" width="120" height="30" rx="5.05" ry="5.05"/><rect class="b" x="656.5" y="209.17" width="100" height="30" rx="5.05" ry="5.05"/><rect class="j" x="656.5" y="419.5" width="20" height="30" rx="5.05" ry="5.05"/><rect class="i" x="656.5" y="314.33" width="60" height="30" rx="5.05" ry="5.05"/><rect class="h" x="656.5" y="366.92" width="40" height="30" rx="5.05" ry="5.05"/></svg>
